<mxfile host="app.diagrams.net" modified="2024-06-23T21:52:34.165Z" agent="Mozilla/5.0 (Windows NT 10.0; Win64; x64) AppleWebKit/537.36 (KHTML, like Gecko) Chrome/123.0.0.0 Safari/537.36 OPR/109.0.0.0" etag="LDzftqLzfGQb1sWYnUGj" version="24.5.4" type="github">
  <diagram name="Página-1" id="AaesnwN6vH4WUWJ6I0e3">
    <mxGraphModel dx="6647" dy="3613" grid="1" gridSize="10" guides="1" tooltips="1" connect="1" arrows="1" fold="1" page="1" pageScale="1" pageWidth="2620" pageHeight="2580" math="0" shadow="0">
      <root>
        <mxCell id="0" />
        <mxCell id="1" parent="0" />
        <mxCell id="dpNASvieYrBIcGNV2ZXr-182" value="" style="group" vertex="1" connectable="0" parent="1">
          <mxGeometry width="2620" height="2580" as="geometry" />
        </mxCell>
        <mxCell id="dpNASvieYrBIcGNV2ZXr-181" value="" style="rounded=0;whiteSpace=wrap;html=1;fillColor=#f5f5f5;fontColor=#333333;strokeColor=#666666;" vertex="1" parent="dpNASvieYrBIcGNV2ZXr-182">
          <mxGeometry width="2620" height="2580" as="geometry" />
        </mxCell>
        <mxCell id="dpNASvieYrBIcGNV2ZXr-179" value="" style="rounded=1;whiteSpace=wrap;html=1;fillColor=#fff2cc;strokeColor=#d6b656;dashed=1;dashPattern=8 8;" vertex="1" parent="dpNASvieYrBIcGNV2ZXr-182">
          <mxGeometry x="60" y="30" width="1240" height="2510.63" as="geometry" />
        </mxCell>
        <mxCell id="dpNASvieYrBIcGNV2ZXr-178" value="" style="rounded=1;whiteSpace=wrap;html=1;fillColor=#f8cecc;strokeColor=#b85450;dashed=1;dashPattern=8 8;" vertex="1" parent="dpNASvieYrBIcGNV2ZXr-182">
          <mxGeometry x="1540" y="430" width="1040" height="1010" as="geometry" />
        </mxCell>
        <mxCell id="dpNASvieYrBIcGNV2ZXr-34" style="edgeStyle=orthogonalEdgeStyle;curved=1;rounded=0;orthogonalLoop=1;jettySize=auto;html=1;exitX=1;exitY=0.5;exitDx=0;exitDy=0;entryX=0;entryY=0.5;entryDx=0;entryDy=0;strokeColor=default;align=center;verticalAlign=middle;fontFamily=Helvetica;fontSize=11;fontColor=default;labelBackgroundColor=default;endArrow=classic;" edge="1" parent="dpNASvieYrBIcGNV2ZXr-182" source="dpNASvieYrBIcGNV2ZXr-62" target="dpNASvieYrBIcGNV2ZXr-33">
          <mxGeometry relative="1" as="geometry">
            <mxPoint x="1840" y="848.75" as="sourcePoint" />
          </mxGeometry>
        </mxCell>
        <mxCell id="dpNASvieYrBIcGNV2ZXr-19" value="Tem mnemônicos de" style="edgeStyle=orthogonalEdgeStyle;rounded=0;orthogonalLoop=1;jettySize=auto;html=1;exitX=1;exitY=0.5;exitDx=0;exitDy=0;curved=1;endArrow=none;endFill=0;" edge="1" parent="dpNASvieYrBIcGNV2ZXr-182" source="dpNASvieYrBIcGNV2ZXr-1">
          <mxGeometry x="0.7334" y="-10" relative="1" as="geometry">
            <mxPoint x="1800" y="550" as="targetPoint" />
            <Array as="points">
              <mxPoint x="1560" y="955" />
              <mxPoint x="1560" y="550" />
            </Array>
            <mxPoint x="1" as="offset" />
          </mxGeometry>
        </mxCell>
        <mxCell id="dpNASvieYrBIcGNV2ZXr-21" value="É necessário saber" style="edgeStyle=orthogonalEdgeStyle;curved=1;rounded=0;orthogonalLoop=1;jettySize=auto;html=1;exitX=1;exitY=0.5;exitDx=0;exitDy=0;entryX=0;entryY=0.5;entryDx=0;entryDy=0;strokeColor=default;align=center;verticalAlign=middle;fontFamily=Helvetica;fontSize=11;fontColor=default;labelBackgroundColor=default;endArrow=classic;" edge="1" parent="dpNASvieYrBIcGNV2ZXr-182" source="dpNASvieYrBIcGNV2ZXr-1" target="dpNASvieYrBIcGNV2ZXr-20">
          <mxGeometry relative="1" as="geometry" />
        </mxCell>
        <mxCell id="dpNASvieYrBIcGNV2ZXr-63" value="Implica em medir" style="edgeStyle=orthogonalEdgeStyle;curved=1;rounded=0;orthogonalLoop=1;jettySize=auto;html=1;exitX=1;exitY=0.5;exitDx=0;exitDy=0;entryX=0;entryY=0.5;entryDx=0;entryDy=0;strokeColor=default;align=center;verticalAlign=middle;fontFamily=Helvetica;fontSize=11;fontColor=default;labelBackgroundColor=default;endArrow=classic;" edge="1" parent="dpNASvieYrBIcGNV2ZXr-182" source="dpNASvieYrBIcGNV2ZXr-1" target="dpNASvieYrBIcGNV2ZXr-62">
          <mxGeometry relative="1" as="geometry" />
        </mxCell>
        <mxCell id="dpNASvieYrBIcGNV2ZXr-71" style="edgeStyle=orthogonalEdgeStyle;curved=1;rounded=0;orthogonalLoop=1;jettySize=auto;html=1;exitX=0;exitY=0.5;exitDx=0;exitDy=0;entryX=1;entryY=0.5;entryDx=0;entryDy=0;strokeColor=default;align=center;verticalAlign=middle;fontFamily=Helvetica;fontSize=11;fontColor=default;labelBackgroundColor=default;endArrow=classic;" edge="1" parent="dpNASvieYrBIcGNV2ZXr-182" source="dpNASvieYrBIcGNV2ZXr-1" target="dpNASvieYrBIcGNV2ZXr-70">
          <mxGeometry relative="1" as="geometry" />
        </mxCell>
        <mxCell id="dpNASvieYrBIcGNV2ZXr-107" style="edgeStyle=orthogonalEdgeStyle;curved=1;rounded=0;orthogonalLoop=1;jettySize=auto;html=1;exitX=0;exitY=0.5;exitDx=0;exitDy=0;entryX=1;entryY=0.5;entryDx=0;entryDy=0;strokeColor=default;align=center;verticalAlign=middle;fontFamily=Helvetica;fontSize=11;fontColor=default;labelBackgroundColor=default;endArrow=classic;" edge="1" parent="dpNASvieYrBIcGNV2ZXr-182" source="dpNASvieYrBIcGNV2ZXr-1" target="dpNASvieYrBIcGNV2ZXr-106">
          <mxGeometry relative="1" as="geometry" />
        </mxCell>
        <mxCell id="dpNASvieYrBIcGNV2ZXr-1" value="&lt;p&gt;&lt;b&gt;&lt;font style=&quot;font-size: 19px;&quot;&gt;Medição de Vazão&lt;/font&gt;&lt;/b&gt;&lt;/p&gt;" style="ellipse;whiteSpace=wrap;html=1;" vertex="1" parent="dpNASvieYrBIcGNV2ZXr-182">
          <mxGeometry x="1410" y="915" width="120" height="80" as="geometry" />
        </mxCell>
        <mxCell id="dpNASvieYrBIcGNV2ZXr-2" value="" style="endArrow=classic;html=1;rounded=0;strokeColor=default;align=center;verticalAlign=middle;fontFamily=Helvetica;fontSize=11;fontColor=default;labelBackgroundColor=default;edgeStyle=orthogonalEdgeStyle;curved=1;" edge="1" parent="dpNASvieYrBIcGNV2ZXr-182">
          <mxGeometry relative="1" as="geometry">
            <mxPoint x="1800" y="561.3199999999997" as="sourcePoint" />
            <mxPoint x="1920" y="462.5" as="targetPoint" />
            <Array as="points">
              <mxPoint x="1800" y="462.5" />
            </Array>
          </mxGeometry>
        </mxCell>
        <mxCell id="dpNASvieYrBIcGNV2ZXr-3" value="&lt;font style=&quot;font-size: 14px;&quot;&gt;Elemento Primário: F&lt;/font&gt;&lt;span style=&quot;font-size: 14px;&quot;&gt;E&lt;/span&gt;" style="edgeLabel;resizable=0;html=1;;align=center;verticalAlign=middle;fontFamily=Helvetica;fontSize=11;fontColor=default;labelBackgroundColor=default;" connectable="0" vertex="1" parent="dpNASvieYrBIcGNV2ZXr-2">
          <mxGeometry relative="1" as="geometry">
            <mxPoint x="189" as="offset" />
          </mxGeometry>
        </mxCell>
        <mxCell id="dpNASvieYrBIcGNV2ZXr-4" value="" style="endArrow=classic;html=1;rounded=0;strokeColor=default;align=center;verticalAlign=middle;fontFamily=Helvetica;fontSize=11;fontColor=default;labelBackgroundColor=default;edgeStyle=orthogonalEdgeStyle;curved=1;" edge="1" parent="dpNASvieYrBIcGNV2ZXr-182">
          <mxGeometry relative="1" as="geometry">
            <mxPoint x="1800" y="562.5" as="sourcePoint" />
            <mxPoint x="1920" y="492.5" as="targetPoint" />
            <Array as="points">
              <mxPoint x="1800" y="492.5" />
              <mxPoint x="1920" y="492.5" />
            </Array>
          </mxGeometry>
        </mxCell>
        <mxCell id="dpNASvieYrBIcGNV2ZXr-5" value="&lt;font style=&quot;font-size: 14px;&quot;&gt;Transmissor com Indicação: FIT&lt;/font&gt;" style="edgeLabel;resizable=0;html=1;;align=center;verticalAlign=middle;fontFamily=Helvetica;fontSize=11;fontColor=default;labelBackgroundColor=default;" connectable="0" vertex="1" parent="dpNASvieYrBIcGNV2ZXr-4">
          <mxGeometry relative="1" as="geometry">
            <mxPoint x="195" as="offset" />
          </mxGeometry>
        </mxCell>
        <mxCell id="dpNASvieYrBIcGNV2ZXr-6" value="" style="endArrow=classic;html=1;rounded=0;strokeColor=default;align=center;verticalAlign=middle;fontFamily=Helvetica;fontSize=11;fontColor=default;labelBackgroundColor=default;edgeStyle=orthogonalEdgeStyle;curved=1;" edge="1" parent="dpNASvieYrBIcGNV2ZXr-182">
          <mxGeometry relative="1" as="geometry">
            <mxPoint x="1800" y="562.5" as="sourcePoint" />
            <mxPoint x="1920" y="522.5" as="targetPoint" />
            <Array as="points">
              <mxPoint x="1800" y="522.5" />
              <mxPoint x="1920" y="522.5" />
            </Array>
          </mxGeometry>
        </mxCell>
        <mxCell id="dpNASvieYrBIcGNV2ZXr-7" value="&lt;font style=&quot;font-size: 14px;&quot;&gt;Transmissor com Registro: FRT&lt;/font&gt;" style="edgeLabel;resizable=0;html=1;;align=center;verticalAlign=middle;fontFamily=Helvetica;fontSize=11;fontColor=default;labelBackgroundColor=default;" connectable="0" vertex="1" parent="dpNASvieYrBIcGNV2ZXr-6">
          <mxGeometry relative="1" as="geometry">
            <mxPoint x="180" as="offset" />
          </mxGeometry>
        </mxCell>
        <mxCell id="dpNASvieYrBIcGNV2ZXr-8" value="" style="endArrow=classic;html=1;rounded=0;strokeColor=default;align=center;verticalAlign=middle;fontFamily=Helvetica;fontSize=11;fontColor=default;labelBackgroundColor=default;edgeStyle=orthogonalEdgeStyle;curved=1;" edge="1" parent="dpNASvieYrBIcGNV2ZXr-182">
          <mxGeometry relative="1" as="geometry">
            <mxPoint x="1800" y="562.5" as="sourcePoint" />
            <mxPoint x="1920" y="542.5" as="targetPoint" />
            <Array as="points">
              <mxPoint x="1800" y="542.5" />
              <mxPoint x="1920" y="542.5" />
            </Array>
          </mxGeometry>
        </mxCell>
        <mxCell id="dpNASvieYrBIcGNV2ZXr-9" value="&lt;font style=&quot;font-size: 14px;&quot;&gt;Controlador com Indicação: FIC&lt;/font&gt;" style="edgeLabel;resizable=0;html=1;;align=center;verticalAlign=middle;fontFamily=Helvetica;fontSize=11;fontColor=default;labelBackgroundColor=default;" connectable="0" vertex="1" parent="dpNASvieYrBIcGNV2ZXr-8">
          <mxGeometry relative="1" as="geometry">
            <mxPoint x="169" as="offset" />
          </mxGeometry>
        </mxCell>
        <mxCell id="dpNASvieYrBIcGNV2ZXr-10" value="" style="endArrow=classic;html=1;rounded=0;strokeColor=default;align=center;verticalAlign=middle;fontFamily=Helvetica;fontSize=11;fontColor=default;labelBackgroundColor=default;edgeStyle=orthogonalEdgeStyle;curved=1;" edge="1" parent="dpNASvieYrBIcGNV2ZXr-182">
          <mxGeometry relative="1" as="geometry">
            <mxPoint x="1800" y="562.5" as="sourcePoint" />
            <mxPoint x="1920" y="562.5" as="targetPoint" />
            <Array as="points">
              <mxPoint x="1800" y="562.5" />
            </Array>
          </mxGeometry>
        </mxCell>
        <mxCell id="dpNASvieYrBIcGNV2ZXr-11" value="&lt;font style=&quot;font-size: 14px;&quot;&gt;Alarme Baixo: FSL&lt;/font&gt;" style="edgeLabel;resizable=0;html=1;;align=center;verticalAlign=middle;fontFamily=Helvetica;fontSize=11;fontColor=default;labelBackgroundColor=default;" connectable="0" vertex="1" parent="dpNASvieYrBIcGNV2ZXr-10">
          <mxGeometry relative="1" as="geometry">
            <mxPoint x="120" as="offset" />
          </mxGeometry>
        </mxCell>
        <mxCell id="dpNASvieYrBIcGNV2ZXr-12" value="" style="endArrow=classic;html=1;rounded=0;strokeColor=default;align=center;verticalAlign=middle;fontFamily=Helvetica;fontSize=11;fontColor=default;labelBackgroundColor=default;edgeStyle=orthogonalEdgeStyle;curved=1;" edge="1" parent="dpNASvieYrBIcGNV2ZXr-182">
          <mxGeometry relative="1" as="geometry">
            <mxPoint x="1800" y="562.5" as="sourcePoint" />
            <mxPoint x="1920" y="592.5" as="targetPoint" />
            <Array as="points">
              <mxPoint x="1800" y="592.5" />
              <mxPoint x="1920" y="592.5" />
            </Array>
          </mxGeometry>
        </mxCell>
        <mxCell id="dpNASvieYrBIcGNV2ZXr-13" value="&lt;font style=&quot;font-size: 14px;&quot;&gt;Alarme Alto: FHL&lt;/font&gt;" style="edgeLabel;resizable=0;html=1;;align=center;verticalAlign=middle;fontFamily=Helvetica;fontSize=11;fontColor=default;labelBackgroundColor=default;" connectable="0" vertex="1" parent="dpNASvieYrBIcGNV2ZXr-12">
          <mxGeometry relative="1" as="geometry">
            <mxPoint x="125" as="offset" />
          </mxGeometry>
        </mxCell>
        <mxCell id="dpNASvieYrBIcGNV2ZXr-14" value="" style="endArrow=classic;html=1;rounded=0;strokeColor=default;align=center;verticalAlign=middle;fontFamily=Helvetica;fontSize=11;fontColor=default;labelBackgroundColor=default;edgeStyle=orthogonalEdgeStyle;curved=1;" edge="1" parent="dpNASvieYrBIcGNV2ZXr-182">
          <mxGeometry relative="1" as="geometry">
            <mxPoint x="1800" y="562.5" as="sourcePoint" />
            <mxPoint x="1920" y="622.5" as="targetPoint" />
            <Array as="points">
              <mxPoint x="1800" y="622.5" />
              <mxPoint x="1920" y="622.5" />
            </Array>
          </mxGeometry>
        </mxCell>
        <mxCell id="dpNASvieYrBIcGNV2ZXr-15" value="&lt;font style=&quot;font-size: 14px;&quot;&gt;Chave de Detecção de Alto e Baixo: FSHL&lt;/font&gt;" style="edgeLabel;resizable=0;html=1;;align=center;verticalAlign=middle;fontFamily=Helvetica;fontSize=11;fontColor=default;labelBackgroundColor=default;" connectable="0" vertex="1" parent="dpNASvieYrBIcGNV2ZXr-14">
          <mxGeometry relative="1" as="geometry">
            <mxPoint x="219" as="offset" />
          </mxGeometry>
        </mxCell>
        <mxCell id="dpNASvieYrBIcGNV2ZXr-16" value="" style="endArrow=classic;html=1;rounded=0;strokeColor=default;align=center;verticalAlign=middle;fontFamily=Helvetica;fontSize=11;fontColor=default;labelBackgroundColor=default;edgeStyle=orthogonalEdgeStyle;curved=1;" edge="1" parent="dpNASvieYrBIcGNV2ZXr-182">
          <mxGeometry relative="1" as="geometry">
            <mxPoint x="1800" y="562.5" as="sourcePoint" />
            <mxPoint x="1920" y="642.5" as="targetPoint" />
            <Array as="points">
              <mxPoint x="1800" y="642.5" />
              <mxPoint x="1920" y="642.5" />
            </Array>
          </mxGeometry>
        </mxCell>
        <mxCell id="dpNASvieYrBIcGNV2ZXr-17" value="&lt;font style=&quot;font-size: 14px;&quot;&gt;Elemento Final de Controle: FV&lt;/font&gt;" style="edgeLabel;resizable=0;html=1;;align=center;verticalAlign=middle;fontFamily=Helvetica;fontSize=11;fontColor=default;labelBackgroundColor=default;" connectable="0" vertex="1" parent="dpNASvieYrBIcGNV2ZXr-16">
          <mxGeometry relative="1" as="geometry">
            <mxPoint x="200" as="offset" />
          </mxGeometry>
        </mxCell>
        <mxCell id="dpNASvieYrBIcGNV2ZXr-23" style="edgeStyle=orthogonalEdgeStyle;curved=1;rounded=0;orthogonalLoop=1;jettySize=auto;html=1;exitX=1;exitY=0.5;exitDx=0;exitDy=0;entryX=0;entryY=0.5;entryDx=0;entryDy=0;strokeColor=default;align=center;verticalAlign=middle;fontFamily=Helvetica;fontSize=11;fontColor=default;labelBackgroundColor=default;endArrow=classic;" edge="1" parent="dpNASvieYrBIcGNV2ZXr-182" source="dpNASvieYrBIcGNV2ZXr-20" target="dpNASvieYrBIcGNV2ZXr-22">
          <mxGeometry relative="1" as="geometry" />
        </mxCell>
        <mxCell id="dpNASvieYrBIcGNV2ZXr-27" style="edgeStyle=orthogonalEdgeStyle;curved=1;rounded=0;orthogonalLoop=1;jettySize=auto;html=1;exitX=1;exitY=0.5;exitDx=0;exitDy=0;entryX=0;entryY=0.5;entryDx=0;entryDy=0;strokeColor=default;align=center;verticalAlign=middle;fontFamily=Helvetica;fontSize=11;fontColor=default;labelBackgroundColor=default;endArrow=classic;" edge="1" parent="dpNASvieYrBIcGNV2ZXr-182" source="dpNASvieYrBIcGNV2ZXr-20" target="dpNASvieYrBIcGNV2ZXr-26">
          <mxGeometry relative="1" as="geometry" />
        </mxCell>
        <mxCell id="dpNASvieYrBIcGNV2ZXr-40" style="edgeStyle=orthogonalEdgeStyle;curved=1;rounded=0;orthogonalLoop=1;jettySize=auto;html=1;exitX=1;exitY=0.5;exitDx=0;exitDy=0;entryX=0;entryY=0.5;entryDx=0;entryDy=0;strokeColor=default;align=center;verticalAlign=middle;fontFamily=Helvetica;fontSize=11;fontColor=default;labelBackgroundColor=default;endArrow=classic;" edge="1" parent="dpNASvieYrBIcGNV2ZXr-182" source="dpNASvieYrBIcGNV2ZXr-20" target="dpNASvieYrBIcGNV2ZXr-39">
          <mxGeometry relative="1" as="geometry" />
        </mxCell>
        <mxCell id="dpNASvieYrBIcGNV2ZXr-44" style="edgeStyle=orthogonalEdgeStyle;curved=1;rounded=0;orthogonalLoop=1;jettySize=auto;html=1;exitX=1;exitY=0.5;exitDx=0;exitDy=0;entryX=0;entryY=0.5;entryDx=0;entryDy=0;strokeColor=default;align=center;verticalAlign=middle;fontFamily=Helvetica;fontSize=11;fontColor=default;labelBackgroundColor=default;endArrow=classic;" edge="1" parent="dpNASvieYrBIcGNV2ZXr-182" source="dpNASvieYrBIcGNV2ZXr-20" target="dpNASvieYrBIcGNV2ZXr-43">
          <mxGeometry relative="1" as="geometry" />
        </mxCell>
        <mxCell id="dpNASvieYrBIcGNV2ZXr-55" style="edgeStyle=orthogonalEdgeStyle;curved=1;rounded=0;orthogonalLoop=1;jettySize=auto;html=1;exitX=1;exitY=0.5;exitDx=0;exitDy=0;entryX=0;entryY=0.5;entryDx=0;entryDy=0;strokeColor=default;align=center;verticalAlign=middle;fontFamily=Helvetica;fontSize=11;fontColor=default;labelBackgroundColor=default;endArrow=classic;" edge="1" parent="dpNASvieYrBIcGNV2ZXr-182" source="dpNASvieYrBIcGNV2ZXr-20" target="dpNASvieYrBIcGNV2ZXr-47">
          <mxGeometry relative="1" as="geometry" />
        </mxCell>
        <mxCell id="dpNASvieYrBIcGNV2ZXr-20" value="&lt;span style=&quot;font-size: 16px;&quot;&gt;&lt;b&gt;Conceitos Gerais&lt;/b&gt;&lt;/span&gt;" style="rounded=1;whiteSpace=wrap;html=1;" vertex="1" parent="dpNASvieYrBIcGNV2ZXr-182">
          <mxGeometry x="1690" y="1112.5" width="120" height="60" as="geometry" />
        </mxCell>
        <mxCell id="dpNASvieYrBIcGNV2ZXr-25" value="Definida por" style="edgeStyle=orthogonalEdgeStyle;curved=1;rounded=0;orthogonalLoop=1;jettySize=auto;html=1;exitX=1;exitY=0.5;exitDx=0;exitDy=0;entryX=0;entryY=0.5;entryDx=0;entryDy=0;strokeColor=default;align=center;verticalAlign=middle;fontFamily=Helvetica;fontSize=11;fontColor=default;labelBackgroundColor=default;endArrow=classic;" edge="1" parent="dpNASvieYrBIcGNV2ZXr-182" source="dpNASvieYrBIcGNV2ZXr-22" target="dpNASvieYrBIcGNV2ZXr-24">
          <mxGeometry relative="1" as="geometry" />
        </mxCell>
        <mxCell id="dpNASvieYrBIcGNV2ZXr-22" value="&lt;span style=&quot;font-size: 16px;&quot;&gt;&lt;b&gt;Condutividade&lt;/b&gt;&lt;/span&gt;" style="rounded=1;whiteSpace=wrap;html=1;" vertex="1" parent="dpNASvieYrBIcGNV2ZXr-182">
          <mxGeometry x="1900" y="952.5" width="120" height="25" as="geometry" />
        </mxCell>
        <mxCell id="dpNASvieYrBIcGNV2ZXr-24" value="Facilidade de condução de corrente elétrica" style="rounded=1;whiteSpace=wrap;html=1;" vertex="1" parent="dpNASvieYrBIcGNV2ZXr-182">
          <mxGeometry x="2110" y="952.5" width="270" height="25" as="geometry" />
        </mxCell>
        <mxCell id="dpNASvieYrBIcGNV2ZXr-26" value="&lt;span style=&quot;font-size: 16px;&quot;&gt;&lt;b&gt;Viscosidade&lt;/b&gt;&lt;/span&gt;" style="rounded=1;whiteSpace=wrap;html=1;" vertex="1" parent="dpNASvieYrBIcGNV2ZXr-182">
          <mxGeometry x="1900" y="1032.5" width="120" height="25" as="geometry" />
        </mxCell>
        <mxCell id="dpNASvieYrBIcGNV2ZXr-29" value="Pode ser" style="edgeStyle=orthogonalEdgeStyle;curved=1;rounded=0;orthogonalLoop=1;jettySize=auto;html=1;entryX=0;entryY=0.5;entryDx=0;entryDy=0;strokeColor=default;align=center;verticalAlign=middle;fontFamily=Helvetica;fontSize=11;fontColor=default;labelBackgroundColor=default;endArrow=classic;exitX=1;exitY=0.5;exitDx=0;exitDy=0;" edge="1" target="dpNASvieYrBIcGNV2ZXr-32" parent="dpNASvieYrBIcGNV2ZXr-182" source="dpNASvieYrBIcGNV2ZXr-62">
          <mxGeometry x="-0.4482" relative="1" as="geometry">
            <mxPoint x="1840" y="852.5" as="sourcePoint" />
            <mxPoint x="1899.9999999999995" y="813.75" as="targetPoint" />
            <mxPoint as="offset" />
          </mxGeometry>
        </mxCell>
        <mxCell id="dpNASvieYrBIcGNV2ZXr-36" style="edgeStyle=orthogonalEdgeStyle;curved=1;rounded=0;orthogonalLoop=1;jettySize=auto;html=1;exitX=1;exitY=0.5;exitDx=0;exitDy=0;strokeColor=default;align=center;verticalAlign=middle;fontFamily=Helvetica;fontSize=11;fontColor=default;labelBackgroundColor=default;endArrow=classic;" edge="1" parent="dpNASvieYrBIcGNV2ZXr-182" source="dpNASvieYrBIcGNV2ZXr-32" target="dpNASvieYrBIcGNV2ZXr-35">
          <mxGeometry relative="1" as="geometry" />
        </mxCell>
        <mxCell id="dpNASvieYrBIcGNV2ZXr-32" value="&lt;span style=&quot;font-size: 16px;&quot;&gt;&lt;b&gt;Volumétrica&lt;/b&gt;&lt;/span&gt;" style="rounded=1;whiteSpace=wrap;html=1;" vertex="1" parent="dpNASvieYrBIcGNV2ZXr-182">
          <mxGeometry x="1910" y="801.25" width="120" height="25" as="geometry" />
        </mxCell>
        <mxCell id="dpNASvieYrBIcGNV2ZXr-38" style="edgeStyle=orthogonalEdgeStyle;curved=1;rounded=0;orthogonalLoop=1;jettySize=auto;html=1;exitX=1;exitY=0.5;exitDx=0;exitDy=0;entryX=0;entryY=0.5;entryDx=0;entryDy=0;strokeColor=default;align=center;verticalAlign=middle;fontFamily=Helvetica;fontSize=11;fontColor=default;labelBackgroundColor=default;endArrow=classic;" edge="1" parent="dpNASvieYrBIcGNV2ZXr-182" source="dpNASvieYrBIcGNV2ZXr-33" target="dpNASvieYrBIcGNV2ZXr-37">
          <mxGeometry relative="1" as="geometry" />
        </mxCell>
        <mxCell id="dpNASvieYrBIcGNV2ZXr-33" value="&lt;span style=&quot;font-size: 16px;&quot;&gt;&lt;b&gt;Mássica&lt;/b&gt;&lt;/span&gt;" style="rounded=1;whiteSpace=wrap;html=1;" vertex="1" parent="dpNASvieYrBIcGNV2ZXr-182">
          <mxGeometry x="1910" y="876.25" width="120" height="25" as="geometry" />
        </mxCell>
        <mxCell id="dpNASvieYrBIcGNV2ZXr-64" value="Medida em" style="edgeStyle=orthogonalEdgeStyle;curved=1;rounded=0;orthogonalLoop=1;jettySize=auto;html=1;exitX=1;exitY=0.5;exitDx=0;exitDy=0;strokeColor=default;align=center;verticalAlign=middle;fontFamily=Helvetica;fontSize=11;fontColor=default;labelBackgroundColor=default;endArrow=classic;entryX=0;entryY=0.5;entryDx=0;entryDy=0;" edge="1" parent="dpNASvieYrBIcGNV2ZXr-182" source="dpNASvieYrBIcGNV2ZXr-35" target="dpNASvieYrBIcGNV2ZXr-66">
          <mxGeometry relative="1" as="geometry">
            <mxPoint x="2450" y="813.5" as="targetPoint" />
          </mxGeometry>
        </mxCell>
        <mxCell id="dpNASvieYrBIcGNV2ZXr-35" value="taxa de transferência de um fluido,&lt;br/&gt;tomada em unidades de volume no tempo: Q =V/t" style="rounded=1;whiteSpace=wrap;html=1;" vertex="1" parent="dpNASvieYrBIcGNV2ZXr-182">
          <mxGeometry x="2070" y="801.25" width="300" height="25" as="geometry" />
        </mxCell>
        <mxCell id="dpNASvieYrBIcGNV2ZXr-65" value="Medida em" style="edgeStyle=orthogonalEdgeStyle;curved=1;rounded=0;orthogonalLoop=1;jettySize=auto;html=1;exitX=1;exitY=0.5;exitDx=0;exitDy=0;strokeColor=default;align=center;verticalAlign=middle;fontFamily=Helvetica;fontSize=11;fontColor=default;labelBackgroundColor=default;endArrow=classic;entryX=0;entryY=0.5;entryDx=0;entryDy=0;" edge="1" parent="dpNASvieYrBIcGNV2ZXr-182" source="dpNASvieYrBIcGNV2ZXr-37" target="dpNASvieYrBIcGNV2ZXr-68">
          <mxGeometry relative="1" as="geometry">
            <mxPoint x="2449.9999999999995" y="889.0454545454547" as="targetPoint" />
          </mxGeometry>
        </mxCell>
        <mxCell id="dpNASvieYrBIcGNV2ZXr-37" value="É a relação entre a massa escoada e o&lt;br&gt;tempo de escoamento dessa massa: W = m/t" style="rounded=1;whiteSpace=wrap;html=1;" vertex="1" parent="dpNASvieYrBIcGNV2ZXr-182">
          <mxGeometry x="2070" y="873.75" width="300" height="30" as="geometry" />
        </mxCell>
        <mxCell id="dpNASvieYrBIcGNV2ZXr-39" value="&lt;span style=&quot;font-size: 16px;&quot;&gt;&lt;b&gt;Compressibilidade&lt;/b&gt;&lt;/span&gt;" style="rounded=1;whiteSpace=wrap;html=1;" vertex="1" parent="dpNASvieYrBIcGNV2ZXr-182">
          <mxGeometry x="1885" y="1147.5" width="150" height="25" as="geometry" />
        </mxCell>
        <mxCell id="dpNASvieYrBIcGNV2ZXr-41" value="Variação da massa específica do material em função da pressão." style="rounded=1;whiteSpace=wrap;html=1;" vertex="1" parent="dpNASvieYrBIcGNV2ZXr-182">
          <mxGeometry x="2130" y="1147.5" width="350" height="25" as="geometry" />
        </mxCell>
        <mxCell id="dpNASvieYrBIcGNV2ZXr-42" value="Definida por" style="edgeStyle=orthogonalEdgeStyle;curved=1;rounded=0;orthogonalLoop=1;jettySize=auto;html=1;entryX=0;entryY=0.5;entryDx=0;entryDy=0;strokeColor=default;align=center;verticalAlign=middle;fontFamily=Helvetica;fontSize=11;fontColor=default;labelBackgroundColor=default;endArrow=classic;exitX=1;exitY=0.5;exitDx=0;exitDy=0;" edge="1" target="dpNASvieYrBIcGNV2ZXr-41" parent="dpNASvieYrBIcGNV2ZXr-182" source="dpNASvieYrBIcGNV2ZXr-39">
          <mxGeometry relative="1" as="geometry">
            <mxPoint x="2050" y="1160.5" as="sourcePoint" />
          </mxGeometry>
        </mxCell>
        <mxCell id="dpNASvieYrBIcGNV2ZXr-43" value="&lt;span style=&quot;font-size: 16px;&quot;&gt;&lt;b&gt;Número de Reynolds&lt;/b&gt;&lt;/span&gt;" style="rounded=1;whiteSpace=wrap;html=1;" vertex="1" parent="dpNASvieYrBIcGNV2ZXr-182">
          <mxGeometry x="1885" y="1202.5" width="150" height="40" as="geometry" />
        </mxCell>
        <mxCell id="dpNASvieYrBIcGNV2ZXr-45" value="Parâmetro adimensional que caracteriza o regime de escoamento de um fluido em uma tubulação, como laminar ou turbulento." style="rounded=1;whiteSpace=wrap;html=1;" vertex="1" parent="dpNASvieYrBIcGNV2ZXr-182">
          <mxGeometry x="2130" y="1206.25" width="380" height="32.5" as="geometry" />
        </mxCell>
        <mxCell id="dpNASvieYrBIcGNV2ZXr-46" value="Definido por" style="edgeStyle=orthogonalEdgeStyle;curved=1;rounded=0;orthogonalLoop=1;jettySize=auto;html=1;entryX=0;entryY=0.5;entryDx=0;entryDy=0;strokeColor=default;align=center;verticalAlign=middle;fontFamily=Helvetica;fontSize=11;fontColor=default;labelBackgroundColor=default;endArrow=classic;exitX=1;exitY=0.5;exitDx=0;exitDy=0;" edge="1" target="dpNASvieYrBIcGNV2ZXr-45" parent="dpNASvieYrBIcGNV2ZXr-182" source="dpNASvieYrBIcGNV2ZXr-43">
          <mxGeometry relative="1" as="geometry">
            <mxPoint x="2040" y="1222.5" as="sourcePoint" />
          </mxGeometry>
        </mxCell>
        <mxCell id="dpNASvieYrBIcGNV2ZXr-49" value="Definida por" style="edgeStyle=orthogonalEdgeStyle;curved=1;rounded=0;orthogonalLoop=1;jettySize=auto;html=1;exitX=1;exitY=0.5;exitDx=0;exitDy=0;entryX=0;entryY=0.5;entryDx=0;entryDy=0;strokeColor=default;align=center;verticalAlign=middle;fontFamily=Helvetica;fontSize=11;fontColor=default;labelBackgroundColor=default;endArrow=classic;" edge="1" parent="dpNASvieYrBIcGNV2ZXr-182" source="dpNASvieYrBIcGNV2ZXr-47" target="dpNASvieYrBIcGNV2ZXr-48">
          <mxGeometry relative="1" as="geometry" />
        </mxCell>
        <mxCell id="dpNASvieYrBIcGNV2ZXr-47" value="&lt;span style=&quot;font-size: 16px;&quot;&gt;&lt;b&gt;Equação da Continuidade&lt;/b&gt;&lt;/span&gt;" style="rounded=1;whiteSpace=wrap;html=1;" vertex="1" parent="dpNASvieYrBIcGNV2ZXr-182">
          <mxGeometry x="1885" y="1292.5" width="150" height="40" as="geometry" />
        </mxCell>
        <mxCell id="dpNASvieYrBIcGNV2ZXr-48" value="Para líquidos incompressíveis que fluem em uma tubulação completamente preenchida, cuja seção varia de A1 para A2 a vazão volumétrica é dada por Q = A1*v1 = A2*v2" style="rounded=1;whiteSpace=wrap;html=1;" vertex="1" parent="dpNASvieYrBIcGNV2ZXr-182">
          <mxGeometry x="2130" y="1287.5" width="380" height="50" as="geometry" />
        </mxCell>
        <mxCell id="dpNASvieYrBIcGNV2ZXr-56" value="&lt;span style=&quot;font-size: 16px;&quot;&gt;&lt;b&gt;Equação de Bernoulli&lt;/b&gt;&lt;/span&gt;" style="rounded=1;whiteSpace=wrap;html=1;" vertex="1" parent="dpNASvieYrBIcGNV2ZXr-182">
          <mxGeometry x="1885" y="1362.5" width="150" height="40" as="geometry" />
        </mxCell>
        <mxCell id="dpNASvieYrBIcGNV2ZXr-57" value="Relaciona as velocidades e pressões de escoamento de um fluido líquido em uma tubulação" style="rounded=1;whiteSpace=wrap;html=1;" vertex="1" parent="dpNASvieYrBIcGNV2ZXr-182">
          <mxGeometry x="2130" y="1365" width="280" height="35" as="geometry" />
        </mxCell>
        <mxCell id="dpNASvieYrBIcGNV2ZXr-58" value="Definida por" style="edgeStyle=orthogonalEdgeStyle;curved=1;rounded=0;orthogonalLoop=1;jettySize=auto;html=1;entryX=0;entryY=0.5;entryDx=0;entryDy=0;strokeColor=default;align=center;verticalAlign=middle;fontFamily=Helvetica;fontSize=11;fontColor=default;labelBackgroundColor=default;endArrow=classic;exitX=1;exitY=0.5;exitDx=0;exitDy=0;" edge="1" target="dpNASvieYrBIcGNV2ZXr-57" parent="dpNASvieYrBIcGNV2ZXr-182" source="dpNASvieYrBIcGNV2ZXr-56">
          <mxGeometry relative="1" as="geometry">
            <mxPoint x="2050" y="1382.5" as="sourcePoint" />
          </mxGeometry>
        </mxCell>
        <mxCell id="dpNASvieYrBIcGNV2ZXr-60" value="Definida por" style="edgeStyle=orthogonalEdgeStyle;curved=1;rounded=0;orthogonalLoop=1;jettySize=auto;html=1;exitX=1;exitY=0.5;exitDx=0;exitDy=0;entryX=0;entryY=0.5;entryDx=0;entryDy=0;strokeColor=default;align=center;verticalAlign=middle;fontFamily=Helvetica;fontSize=11;fontColor=default;labelBackgroundColor=default;endArrow=classic;" edge="1" target="dpNASvieYrBIcGNV2ZXr-61" parent="dpNASvieYrBIcGNV2ZXr-182" source="dpNASvieYrBIcGNV2ZXr-62">
          <mxGeometry relative="1" as="geometry">
            <mxPoint x="1910" y="848" as="sourcePoint" />
          </mxGeometry>
        </mxCell>
        <mxCell id="dpNASvieYrBIcGNV2ZXr-61" value="Quantidade de fluido (líquido, gás ou vapor) que passa pela seção reta de um tubo por unidade de tempo." style="rounded=1;whiteSpace=wrap;html=1;" vertex="1" parent="dpNASvieYrBIcGNV2ZXr-182">
          <mxGeometry x="1900" y="692.5" width="270" height="55" as="geometry" />
        </mxCell>
        <mxCell id="dpNASvieYrBIcGNV2ZXr-62" value="&lt;span style=&quot;font-size: 16px;&quot;&gt;&lt;b&gt;Vazão&lt;/b&gt;&lt;/span&gt;" style="rounded=1;whiteSpace=wrap;html=1;" vertex="1" parent="dpNASvieYrBIcGNV2ZXr-182">
          <mxGeometry x="1720" y="822.5" width="120" height="60" as="geometry" />
        </mxCell>
        <mxCell id="dpNASvieYrBIcGNV2ZXr-66" value="m³/s&lt;div&gt;L/s&lt;/div&gt;" style="rounded=1;whiteSpace=wrap;html=1;" vertex="1" parent="dpNASvieYrBIcGNV2ZXr-182">
          <mxGeometry x="2450" y="796.8800000000001" width="30" height="33.75" as="geometry" />
        </mxCell>
        <mxCell id="dpNASvieYrBIcGNV2ZXr-68" value="kg/s" style="rounded=1;whiteSpace=wrap;html=1;" vertex="1" parent="dpNASvieYrBIcGNV2ZXr-182">
          <mxGeometry x="2450" y="876.25" width="30" height="25" as="geometry" />
        </mxCell>
        <mxCell id="dpNASvieYrBIcGNV2ZXr-73" style="edgeStyle=orthogonalEdgeStyle;curved=1;rounded=0;orthogonalLoop=1;jettySize=auto;html=1;exitX=0;exitY=0.5;exitDx=0;exitDy=0;entryX=1;entryY=0.5;entryDx=0;entryDy=0;strokeColor=default;align=center;verticalAlign=middle;fontFamily=Helvetica;fontSize=11;fontColor=default;labelBackgroundColor=default;endArrow=classic;" edge="1" parent="dpNASvieYrBIcGNV2ZXr-182" source="dpNASvieYrBIcGNV2ZXr-70" target="dpNASvieYrBIcGNV2ZXr-76">
          <mxGeometry relative="1" as="geometry">
            <mxPoint x="1055" y="730" as="targetPoint" />
          </mxGeometry>
        </mxCell>
        <mxCell id="dpNASvieYrBIcGNV2ZXr-86" style="edgeStyle=orthogonalEdgeStyle;curved=1;rounded=0;orthogonalLoop=1;jettySize=auto;html=1;exitX=0;exitY=0.5;exitDx=0;exitDy=0;entryX=1;entryY=0.5;entryDx=0;entryDy=0;strokeColor=default;align=center;verticalAlign=middle;fontFamily=Helvetica;fontSize=11;fontColor=default;labelBackgroundColor=default;endArrow=classic;" edge="1" parent="dpNASvieYrBIcGNV2ZXr-182" source="dpNASvieYrBIcGNV2ZXr-70" target="dpNASvieYrBIcGNV2ZXr-85">
          <mxGeometry relative="1" as="geometry" />
        </mxCell>
        <mxCell id="dpNASvieYrBIcGNV2ZXr-104" style="edgeStyle=orthogonalEdgeStyle;curved=1;rounded=0;orthogonalLoop=1;jettySize=auto;html=1;exitX=0;exitY=0.5;exitDx=0;exitDy=0;entryX=1;entryY=0.5;entryDx=0;entryDy=0;strokeColor=default;align=center;verticalAlign=middle;fontFamily=Helvetica;fontSize=11;fontColor=default;labelBackgroundColor=default;endArrow=classic;" edge="1" parent="dpNASvieYrBIcGNV2ZXr-182" source="dpNASvieYrBIcGNV2ZXr-70" target="dpNASvieYrBIcGNV2ZXr-92">
          <mxGeometry relative="1" as="geometry" />
        </mxCell>
        <mxCell id="dpNASvieYrBIcGNV2ZXr-105" style="edgeStyle=orthogonalEdgeStyle;curved=1;rounded=0;orthogonalLoop=1;jettySize=auto;html=1;exitX=0;exitY=0.5;exitDx=0;exitDy=0;entryX=1;entryY=0.5;entryDx=0;entryDy=0;strokeColor=default;align=center;verticalAlign=middle;fontFamily=Helvetica;fontSize=11;fontColor=default;labelBackgroundColor=default;endArrow=classic;" edge="1" parent="dpNASvieYrBIcGNV2ZXr-182" source="dpNASvieYrBIcGNV2ZXr-70" target="dpNASvieYrBIcGNV2ZXr-100">
          <mxGeometry relative="1" as="geometry" />
        </mxCell>
        <mxCell id="dpNASvieYrBIcGNV2ZXr-70" value="&lt;span style=&quot;font-size: 16px;&quot;&gt;&lt;b&gt;Pressão Diferencial&lt;/b&gt;&lt;/span&gt;" style="rounded=1;whiteSpace=wrap;html=1;" vertex="1" parent="dpNASvieYrBIcGNV2ZXr-182">
          <mxGeometry x="1115" y="510" width="120" height="60" as="geometry" />
        </mxCell>
        <mxCell id="dpNASvieYrBIcGNV2ZXr-74" value="funciona por" style="edgeStyle=orthogonalEdgeStyle;curved=1;rounded=0;orthogonalLoop=1;jettySize=auto;html=1;exitX=0;exitY=0.5;exitDx=0;exitDy=0;entryX=1;entryY=0.5;entryDx=0;entryDy=0;strokeColor=default;align=center;verticalAlign=middle;fontFamily=Helvetica;fontSize=11;fontColor=default;labelBackgroundColor=default;resizable=0;endArrow=classic;" edge="1" parent="dpNASvieYrBIcGNV2ZXr-182" source="dpNASvieYrBIcGNV2ZXr-76" target="dpNASvieYrBIcGNV2ZXr-77">
          <mxGeometry x="0.1053" y="-5" relative="1" as="geometry">
            <mxPoint as="offset" />
          </mxGeometry>
        </mxCell>
        <mxCell id="dpNASvieYrBIcGNV2ZXr-75" value="Características" style="edgeStyle=orthogonalEdgeStyle;curved=1;rounded=0;orthogonalLoop=1;jettySize=auto;html=1;exitX=0;exitY=0.5;exitDx=0;exitDy=0;entryX=1;entryY=0.5;entryDx=0;entryDy=0;strokeColor=default;align=center;verticalAlign=middle;fontFamily=Helvetica;fontSize=11;fontColor=default;labelBackgroundColor=default;resizable=0;endArrow=classic;" edge="1" parent="dpNASvieYrBIcGNV2ZXr-182" source="dpNASvieYrBIcGNV2ZXr-76" target="dpNASvieYrBIcGNV2ZXr-78">
          <mxGeometry relative="1" as="geometry" />
        </mxCell>
        <mxCell id="dpNASvieYrBIcGNV2ZXr-76" value="&lt;font style=&quot;font-size: 16px;&quot;&gt;&lt;b&gt;Placa de Orifício&lt;/b&gt;&lt;/font&gt;" style="rounded=1;whiteSpace=wrap;html=1;" vertex="1" parent="dpNASvieYrBIcGNV2ZXr-182">
          <mxGeometry x="850" y="280" width="130" height="40" as="geometry" />
        </mxCell>
        <mxCell id="dpNASvieYrBIcGNV2ZXr-80" value="Para líquidos com gás&lt;div&gt;dissolvido&lt;/div&gt;" style="edgeStyle=orthogonalEdgeStyle;curved=1;rounded=0;orthogonalLoop=1;jettySize=auto;html=1;exitX=0;exitY=0.5;exitDx=0;exitDy=0;entryX=1;entryY=0.5;entryDx=0;entryDy=0;strokeColor=default;align=center;verticalAlign=middle;fontFamily=Helvetica;fontSize=11;fontColor=default;labelBackgroundColor=default;endArrow=classic;" edge="1" parent="dpNASvieYrBIcGNV2ZXr-182" source="dpNASvieYrBIcGNV2ZXr-77" target="dpNASvieYrBIcGNV2ZXr-79">
          <mxGeometry relative="1" as="geometry" />
        </mxCell>
        <mxCell id="dpNASvieYrBIcGNV2ZXr-82" value="Para gases úmidos" style="edgeStyle=orthogonalEdgeStyle;curved=1;rounded=0;orthogonalLoop=1;jettySize=auto;html=1;exitX=0;exitY=0.5;exitDx=0;exitDy=0;entryX=1;entryY=0.5;entryDx=0;entryDy=0;strokeColor=default;align=center;verticalAlign=middle;fontFamily=Helvetica;fontSize=11;fontColor=default;labelBackgroundColor=default;endArrow=classic;" edge="1" parent="dpNASvieYrBIcGNV2ZXr-182" source="dpNASvieYrBIcGNV2ZXr-77" target="dpNASvieYrBIcGNV2ZXr-81">
          <mxGeometry relative="1" as="geometry" />
        </mxCell>
        <mxCell id="dpNASvieYrBIcGNV2ZXr-77" value="disco chato, de pouca espessura, com um orifício para passagem&amp;nbsp;&lt;span style=&quot;background-color: initial;&quot;&gt;do fluido, que é instalado por meio de &lt;/span&gt;&lt;span style=&quot;background-color: initial;&quot;&gt;flanges na tubulação&lt;/span&gt;" style="rounded=1;whiteSpace=wrap;html=1;" vertex="1" parent="dpNASvieYrBIcGNV2ZXr-182">
          <mxGeometry x="570" y="210" width="220" height="60" as="geometry" />
        </mxCell>
        <mxCell id="dpNASvieYrBIcGNV2ZXr-78" value="É o mais simples e flexível dos elementos primários de vazão" style="rounded=1;whiteSpace=wrap;html=1;" vertex="1" parent="dpNASvieYrBIcGNV2ZXr-182">
          <mxGeometry x="550" y="275" width="180" height="50" as="geometry" />
        </mxCell>
        <mxCell id="dpNASvieYrBIcGNV2ZXr-79" value="o furo de ventilação deve ser&lt;br/&gt;em cima para permitir que bolhas de gás&lt;br/&gt;passem através dele ou em baixo para&lt;br/&gt;permitir que os sólidos mais pesados&lt;br/&gt;passem através dele" style="rounded=1;whiteSpace=wrap;html=1;" vertex="1" parent="dpNASvieYrBIcGNV2ZXr-182">
          <mxGeometry x="230" y="110" width="220" height="80" as="geometry" />
        </mxCell>
        <mxCell id="dpNASvieYrBIcGNV2ZXr-81" value="deve-se usar furo de dreno." style="rounded=1;whiteSpace=wrap;html=1;" vertex="1" parent="dpNASvieYrBIcGNV2ZXr-182">
          <mxGeometry x="230" y="230" width="170" height="23.75" as="geometry" />
        </mxCell>
        <mxCell id="dpNASvieYrBIcGNV2ZXr-83" value="&amp;nbsp;efeito produzido por uma&lt;br/&gt;obstrução à passagem do fluido.&amp;nbsp;" style="rounded=1;whiteSpace=wrap;html=1;" vertex="1" parent="dpNASvieYrBIcGNV2ZXr-182">
          <mxGeometry x="840" y="170" width="220" height="40" as="geometry" />
        </mxCell>
        <mxCell id="dpNASvieYrBIcGNV2ZXr-84" value="funciona por" style="edgeStyle=orthogonalEdgeStyle;curved=1;rounded=0;orthogonalLoop=1;jettySize=auto;html=1;exitX=0;exitY=0.5;exitDx=0;exitDy=0;entryX=1;entryY=0.5;entryDx=0;entryDy=0;strokeColor=default;align=center;verticalAlign=middle;fontFamily=Helvetica;fontSize=11;fontColor=default;labelBackgroundColor=default;resizable=0;endArrow=classic;" edge="1" target="dpNASvieYrBIcGNV2ZXr-83" parent="dpNASvieYrBIcGNV2ZXr-182" source="dpNASvieYrBIcGNV2ZXr-70">
          <mxGeometry x="0.1053" y="-5" relative="1" as="geometry">
            <mxPoint as="offset" />
            <mxPoint x="1095" y="800" as="sourcePoint" />
          </mxGeometry>
        </mxCell>
        <mxCell id="dpNASvieYrBIcGNV2ZXr-90" value="Características" style="edgeStyle=orthogonalEdgeStyle;curved=1;rounded=0;orthogonalLoop=1;jettySize=auto;html=1;exitX=0;exitY=0.5;exitDx=0;exitDy=0;entryX=1;entryY=0.5;entryDx=0;entryDy=0;strokeColor=default;align=center;verticalAlign=middle;fontFamily=Helvetica;fontSize=11;fontColor=default;labelBackgroundColor=default;endArrow=classic;" edge="1" parent="dpNASvieYrBIcGNV2ZXr-182" source="dpNASvieYrBIcGNV2ZXr-85" target="dpNASvieYrBIcGNV2ZXr-89">
          <mxGeometry x="-0.0239" y="-17" relative="1" as="geometry">
            <mxPoint as="offset" />
          </mxGeometry>
        </mxCell>
        <mxCell id="dpNASvieYrBIcGNV2ZXr-120" value="Usado em" style="edgeStyle=orthogonalEdgeStyle;curved=1;rounded=0;orthogonalLoop=1;jettySize=auto;html=1;exitX=0;exitY=0.5;exitDx=0;exitDy=0;entryX=1;entryY=0.5;entryDx=0;entryDy=0;strokeColor=default;align=center;verticalAlign=middle;fontFamily=Helvetica;fontSize=11;fontColor=default;labelBackgroundColor=default;endArrow=classic;" edge="1" parent="dpNASvieYrBIcGNV2ZXr-182" source="dpNASvieYrBIcGNV2ZXr-85" target="dpNASvieYrBIcGNV2ZXr-119">
          <mxGeometry relative="1" as="geometry" />
        </mxCell>
        <mxCell id="dpNASvieYrBIcGNV2ZXr-85" value="&lt;font style=&quot;font-size: 16px;&quot;&gt;&lt;b&gt;Tubo de Venturi&lt;/b&gt;&lt;/font&gt;" style="rounded=1;whiteSpace=wrap;html=1;" vertex="1" parent="dpNASvieYrBIcGNV2ZXr-182">
          <mxGeometry x="850" y="410" width="130" height="40" as="geometry" />
        </mxCell>
        <mxCell id="dpNASvieYrBIcGNV2ZXr-87" value="Lei de Venturi.&lt;br&gt;Os fluidos sob pressão, na passagem&lt;br&gt;através de tubos convergentes ganham&lt;br&gt;velocidade e perdem pressão, ocorrendo o oposto em tubos divergentes" style="rounded=1;whiteSpace=wrap;html=1;" vertex="1" parent="dpNASvieYrBIcGNV2ZXr-182">
          <mxGeometry x="475" y="345.6300000000001" width="240" height="80" as="geometry" />
        </mxCell>
        <mxCell id="dpNASvieYrBIcGNV2ZXr-88" value="funciona por" style="edgeStyle=orthogonalEdgeStyle;curved=1;rounded=0;orthogonalLoop=1;jettySize=auto;html=1;exitX=0;exitY=0.5;exitDx=0;exitDy=0;entryX=1;entryY=0.5;entryDx=0;entryDy=0;strokeColor=default;align=center;verticalAlign=middle;fontFamily=Helvetica;fontSize=11;fontColor=default;labelBackgroundColor=default;resizable=0;endArrow=classic;" edge="1" target="dpNASvieYrBIcGNV2ZXr-87" parent="dpNASvieYrBIcGNV2ZXr-182" source="dpNASvieYrBIcGNV2ZXr-85">
          <mxGeometry x="0.1053" y="-5" relative="1" as="geometry">
            <mxPoint as="offset" />
            <mxPoint x="850" y="430" as="sourcePoint" />
          </mxGeometry>
        </mxCell>
        <mxCell id="dpNASvieYrBIcGNV2ZXr-89" value="Combina dentro de uma unidade, uma&lt;br/&gt;curta “garganta”, estreitada entre duas&lt;br/&gt;seções cônicas, e é usualmente instalado&lt;br/&gt;entre dois flanges numa tubulação" style="rounded=1;whiteSpace=wrap;html=1;" vertex="1" parent="dpNASvieYrBIcGNV2ZXr-182">
          <mxGeometry x="475" y="434.3800000000001" width="240" height="80" as="geometry" />
        </mxCell>
        <mxCell id="dpNASvieYrBIcGNV2ZXr-91" value="Características" style="edgeStyle=orthogonalEdgeStyle;curved=1;rounded=0;orthogonalLoop=1;jettySize=auto;html=1;exitX=0;exitY=0.5;exitDx=0;exitDy=0;entryX=1;entryY=0.5;entryDx=0;entryDy=0;strokeColor=default;align=center;verticalAlign=middle;fontFamily=Helvetica;fontSize=11;fontColor=default;labelBackgroundColor=default;endArrow=classic;" edge="1" source="dpNASvieYrBIcGNV2ZXr-92" target="dpNASvieYrBIcGNV2ZXr-95" parent="dpNASvieYrBIcGNV2ZXr-182">
          <mxGeometry relative="1" as="geometry" />
        </mxCell>
        <mxCell id="dpNASvieYrBIcGNV2ZXr-92" value="&lt;font style=&quot;font-size: 16px;&quot;&gt;&lt;b&gt;Bocal&lt;/b&gt;&lt;/font&gt;" style="rounded=1;whiteSpace=wrap;html=1;" vertex="1" parent="dpNASvieYrBIcGNV2ZXr-182">
          <mxGeometry x="845" y="645" width="130" height="40" as="geometry" />
        </mxCell>
        <mxCell id="dpNASvieYrBIcGNV2ZXr-95" value="É um meio termo entre a placa de orifício&lt;br/&gt;e o tubo Venturi" style="rounded=1;whiteSpace=wrap;html=1;" vertex="1" parent="dpNASvieYrBIcGNV2ZXr-182">
          <mxGeometry x="515" y="630" width="240" height="40" as="geometry" />
        </mxCell>
        <mxCell id="dpNASvieYrBIcGNV2ZXr-99" value="Características" style="edgeStyle=orthogonalEdgeStyle;curved=1;rounded=0;orthogonalLoop=1;jettySize=auto;html=1;exitX=0;exitY=0.5;exitDx=0;exitDy=0;entryX=1;entryY=0.5;entryDx=0;entryDy=0;strokeColor=default;align=center;verticalAlign=middle;fontFamily=Helvetica;fontSize=11;fontColor=default;labelBackgroundColor=default;endArrow=classic;" edge="1" source="dpNASvieYrBIcGNV2ZXr-100" target="dpNASvieYrBIcGNV2ZXr-103" parent="dpNASvieYrBIcGNV2ZXr-182">
          <mxGeometry relative="1" as="geometry" />
        </mxCell>
        <mxCell id="dpNASvieYrBIcGNV2ZXr-100" value="&lt;font style=&quot;font-size: 16px;&quot;&gt;&lt;b&gt;Tubo Annubar&lt;/b&gt;&lt;/font&gt;" style="rounded=1;whiteSpace=wrap;html=1;" vertex="1" parent="dpNASvieYrBIcGNV2ZXr-182">
          <mxGeometry x="845" y="835" width="130" height="40" as="geometry" />
        </mxCell>
        <mxCell id="dpNASvieYrBIcGNV2ZXr-101" value="Consiste em dois tubos inseridos na&lt;br/&gt;tubulação, perpendiculares ao fluxo do&lt;br/&gt;fluido" style="rounded=1;whiteSpace=wrap;html=1;" vertex="1" parent="dpNASvieYrBIcGNV2ZXr-182">
          <mxGeometry x="515" y="775" width="240" height="80" as="geometry" />
        </mxCell>
        <mxCell id="dpNASvieYrBIcGNV2ZXr-102" value="funciona por" style="edgeStyle=orthogonalEdgeStyle;curved=1;rounded=0;orthogonalLoop=1;jettySize=auto;html=1;exitX=0;exitY=0.5;exitDx=0;exitDy=0;entryX=1;entryY=0.5;entryDx=0;entryDy=0;strokeColor=default;align=center;verticalAlign=middle;fontFamily=Helvetica;fontSize=11;fontColor=default;labelBackgroundColor=default;resizable=0;endArrow=classic;" edge="1" source="dpNASvieYrBIcGNV2ZXr-100" target="dpNASvieYrBIcGNV2ZXr-101" parent="dpNASvieYrBIcGNV2ZXr-182">
          <mxGeometry x="0.1053" y="-5" relative="1" as="geometry">
            <mxPoint as="offset" />
            <mxPoint x="845" y="855" as="sourcePoint" />
          </mxGeometry>
        </mxCell>
        <mxCell id="dpNASvieYrBIcGNV2ZXr-103" value="É uma versão comercial industrial do Tubo&lt;br/&gt;de Pitot" style="rounded=1;whiteSpace=wrap;html=1;" vertex="1" parent="dpNASvieYrBIcGNV2ZXr-182">
          <mxGeometry x="525" y="885" width="240" height="40" as="geometry" />
        </mxCell>
        <mxCell id="dpNASvieYrBIcGNV2ZXr-109" style="edgeStyle=orthogonalEdgeStyle;curved=1;rounded=0;orthogonalLoop=1;jettySize=auto;html=1;exitX=0;exitY=0.5;exitDx=0;exitDy=0;entryX=1;entryY=0.5;entryDx=0;entryDy=0;strokeColor=default;align=center;verticalAlign=middle;fontFamily=Helvetica;fontSize=11;fontColor=default;labelBackgroundColor=default;endArrow=classic;" edge="1" parent="dpNASvieYrBIcGNV2ZXr-182" source="dpNASvieYrBIcGNV2ZXr-106" target="dpNASvieYrBIcGNV2ZXr-108">
          <mxGeometry relative="1" as="geometry" />
        </mxCell>
        <mxCell id="dpNASvieYrBIcGNV2ZXr-106" value="&lt;span style=&quot;font-size: 16px;&quot;&gt;&lt;b&gt;Área Variável&lt;/b&gt;&lt;/span&gt;" style="rounded=1;whiteSpace=wrap;html=1;" vertex="1" parent="dpNASvieYrBIcGNV2ZXr-182">
          <mxGeometry x="1115" y="1050" width="120" height="60" as="geometry" />
        </mxCell>
        <mxCell id="dpNASvieYrBIcGNV2ZXr-117" style="edgeStyle=orthogonalEdgeStyle;curved=1;rounded=0;orthogonalLoop=1;jettySize=auto;html=1;exitX=0;exitY=0.5;exitDx=0;exitDy=0;entryX=1;entryY=0.25;entryDx=0;entryDy=0;strokeColor=default;align=center;verticalAlign=middle;fontFamily=Helvetica;fontSize=11;fontColor=default;labelBackgroundColor=default;endArrow=classic;" edge="1" parent="dpNASvieYrBIcGNV2ZXr-182" source="dpNASvieYrBIcGNV2ZXr-108" target="dpNASvieYrBIcGNV2ZXr-116">
          <mxGeometry relative="1" as="geometry">
            <Array as="points">
              <mxPoint x="780" y="1080" />
              <mxPoint x="780" y="1133" />
              <mxPoint x="755" y="1133" />
            </Array>
          </mxGeometry>
        </mxCell>
        <mxCell id="dpNASvieYrBIcGNV2ZXr-108" value="&lt;font style=&quot;font-size: 16px;&quot;&gt;&lt;b&gt;Rotâmetro&lt;/b&gt;&lt;/font&gt;" style="rounded=1;whiteSpace=wrap;html=1;" vertex="1" parent="dpNASvieYrBIcGNV2ZXr-182">
          <mxGeometry x="910" y="1060" width="130" height="40" as="geometry" />
        </mxCell>
        <mxCell id="dpNASvieYrBIcGNV2ZXr-110" value="quedas de pressão&lt;br/&gt;relativamente constantes.&amp;nbsp;" style="rounded=1;whiteSpace=wrap;html=1;" vertex="1" parent="dpNASvieYrBIcGNV2ZXr-182">
          <mxGeometry x="590" y="1012.5" width="165" height="37.5" as="geometry" />
        </mxCell>
        <mxCell id="dpNASvieYrBIcGNV2ZXr-111" value="funciona por" style="edgeStyle=orthogonalEdgeStyle;curved=1;rounded=0;orthogonalLoop=1;jettySize=auto;html=1;exitX=0;exitY=0.5;exitDx=0;exitDy=0;entryX=1;entryY=0.5;entryDx=0;entryDy=0;strokeColor=default;align=center;verticalAlign=middle;fontFamily=Helvetica;fontSize=11;fontColor=default;labelBackgroundColor=default;resizable=0;endArrow=classic;" edge="1" target="dpNASvieYrBIcGNV2ZXr-110" parent="dpNASvieYrBIcGNV2ZXr-182" source="dpNASvieYrBIcGNV2ZXr-108">
          <mxGeometry x="0.1053" y="-5" relative="1" as="geometry">
            <mxPoint as="offset" />
            <mxPoint x="895" y="1082.5" as="sourcePoint" />
          </mxGeometry>
        </mxCell>
        <mxCell id="dpNASvieYrBIcGNV2ZXr-114" value="Características" style="edgeStyle=orthogonalEdgeStyle;curved=1;rounded=0;orthogonalLoop=1;jettySize=auto;html=1;exitX=0;exitY=0.5;exitDx=0;exitDy=0;entryX=1;entryY=0.5;entryDx=0;entryDy=0;strokeColor=default;align=center;verticalAlign=middle;fontFamily=Helvetica;fontSize=11;fontColor=default;labelBackgroundColor=default;endArrow=classic;" edge="1" target="dpNASvieYrBIcGNV2ZXr-115" parent="dpNASvieYrBIcGNV2ZXr-182" source="dpNASvieYrBIcGNV2ZXr-108">
          <mxGeometry relative="1" as="geometry">
            <mxPoint x="910" y="1080" as="sourcePoint" />
          </mxGeometry>
        </mxCell>
        <mxCell id="dpNASvieYrBIcGNV2ZXr-115" value="É capaz de medir vazão de líquidos, gases&lt;br/&gt;e vapores" style="rounded=1;whiteSpace=wrap;html=1;" vertex="1" parent="dpNASvieYrBIcGNV2ZXr-182">
          <mxGeometry x="515" y="1060" width="240" height="40" as="geometry" />
        </mxCell>
        <mxCell id="dpNASvieYrBIcGNV2ZXr-116" value="Um tubo de vidro de formato cônico, colocado verticalmente na tubulação em que passará o fluido que se quer medir. A extremidade maior do tubo cônico ficará voltada para cima. No interior do tubo cônico tem-se um flutuador que se moverá verticalmente em função da vazão medida.&amp;nbsp;" style="rounded=1;whiteSpace=wrap;html=1;" vertex="1" parent="dpNASvieYrBIcGNV2ZXr-182">
          <mxGeometry x="430" y="1110" width="325" height="90" as="geometry" />
        </mxCell>
        <mxCell id="dpNASvieYrBIcGNV2ZXr-119" value="quando é necessário um&lt;br/&gt;elemento primário que introduza&lt;br/&gt;pouca perda de carga e admita sólidos&lt;br/&gt;em suspensão e/ou fluidos viscosos" style="rounded=1;whiteSpace=wrap;html=1;" vertex="1" parent="dpNASvieYrBIcGNV2ZXr-182">
          <mxGeometry x="522.5" y="540" width="225" height="60" as="geometry" />
        </mxCell>
        <mxCell id="dpNASvieYrBIcGNV2ZXr-121" value="vapores e gases com&lt;br/&gt;velocidades superiores a 30 m/s ,&lt;br/&gt;tubulação com diâmetros acima de 50&lt;br/&gt;mm e fluidos abrasivos ou corrosivos" style="rounded=1;whiteSpace=wrap;html=1;" vertex="1" parent="dpNASvieYrBIcGNV2ZXr-182">
          <mxGeometry x="522.5" y="690" width="225" height="60" as="geometry" />
        </mxCell>
        <mxCell id="dpNASvieYrBIcGNV2ZXr-122" value="Usado em" style="edgeStyle=orthogonalEdgeStyle;curved=1;rounded=0;orthogonalLoop=1;jettySize=auto;html=1;exitX=0;exitY=0.5;exitDx=0;exitDy=0;entryX=1;entryY=0.5;entryDx=0;entryDy=0;strokeColor=default;align=center;verticalAlign=middle;fontFamily=Helvetica;fontSize=11;fontColor=default;labelBackgroundColor=default;endArrow=classic;" edge="1" target="dpNASvieYrBIcGNV2ZXr-121" parent="dpNASvieYrBIcGNV2ZXr-182" source="dpNASvieYrBIcGNV2ZXr-92">
          <mxGeometry relative="1" as="geometry">
            <mxPoint x="835" y="570" as="sourcePoint" />
          </mxGeometry>
        </mxCell>
        <mxCell id="dpNASvieYrBIcGNV2ZXr-127" value="Características" style="edgeStyle=orthogonalEdgeStyle;curved=1;rounded=0;orthogonalLoop=1;jettySize=auto;html=1;exitX=0;exitY=0.5;exitDx=0;exitDy=0;entryX=1;entryY=0.5;entryDx=0;entryDy=0;strokeColor=default;align=center;verticalAlign=middle;fontFamily=Helvetica;fontSize=11;fontColor=default;labelBackgroundColor=default;endArrow=classic;" edge="1" parent="dpNASvieYrBIcGNV2ZXr-182" source="dpNASvieYrBIcGNV2ZXr-123" target="dpNASvieYrBIcGNV2ZXr-126">
          <mxGeometry relative="1" as="geometry" />
        </mxCell>
        <mxCell id="dpNASvieYrBIcGNV2ZXr-123" value="&lt;span style=&quot;font-size: 16px;&quot;&gt;&lt;b&gt;Medidor de Vazão por Área de Arrasto&lt;/b&gt;&lt;/span&gt;" style="rounded=1;whiteSpace=wrap;html=1;" vertex="1" parent="dpNASvieYrBIcGNV2ZXr-182">
          <mxGeometry x="1107.5" y="1280" width="135" height="60" as="geometry" />
        </mxCell>
        <mxCell id="dpNASvieYrBIcGNV2ZXr-124" value="Funciona por" style="edgeStyle=orthogonalEdgeStyle;curved=1;rounded=0;orthogonalLoop=1;jettySize=auto;html=1;exitX=0;exitY=0.5;exitDx=0;exitDy=0;entryX=1;entryY=0.5;entryDx=0;entryDy=0;strokeColor=default;align=center;verticalAlign=middle;fontFamily=Helvetica;fontSize=11;fontColor=default;labelBackgroundColor=default;endArrow=classic;" edge="1" target="dpNASvieYrBIcGNV2ZXr-125" parent="dpNASvieYrBIcGNV2ZXr-182" source="dpNASvieYrBIcGNV2ZXr-123">
          <mxGeometry relative="1" as="geometry">
            <mxPoint x="1085" y="1305" as="sourcePoint" />
          </mxGeometry>
        </mxCell>
        <mxCell id="dpNASvieYrBIcGNV2ZXr-125" value="Força de arrasto do fluido, impressa em&lt;br&gt;uma placa submersa e posicionada no&lt;br&gt;centro da tubulação" style="rounded=1;whiteSpace=wrap;html=1;" vertex="1" parent="dpNASvieYrBIcGNV2ZXr-182">
          <mxGeometry x="780" y="1203.75" width="240" height="45" as="geometry" />
        </mxCell>
        <mxCell id="dpNASvieYrBIcGNV2ZXr-126" value="Utilizado com líquidos que contenham alguma quantidade de sólidos em suspensão,gases e vapores, incluso criogénicos. Não possui partes móveis; Alta confiabilidade, longo ciclo de vida, robustez. Pode ser instalado em tubulações de ½“ até diâmetros tão superiores quanto se queira. Facilidade de adaptação do range (ou ao fluido), apenas modificando a distância de submersão da haste (placa). É capaz de medir vazões bidirecionais, podendo indicar um sinal negativo no caso de fluxo contrário. Pode medir vazões mínimas de 0,3 L/min até 40.000L/min, com erro máximo de 1% ;" style="rounded=1;whiteSpace=wrap;html=1;" vertex="1" parent="dpNASvieYrBIcGNV2ZXr-182">
          <mxGeometry x="453" y="1285" width="555" height="92.5" as="geometry" />
        </mxCell>
        <mxCell id="dpNASvieYrBIcGNV2ZXr-131" style="edgeStyle=orthogonalEdgeStyle;curved=1;rounded=0;orthogonalLoop=1;jettySize=auto;html=1;exitX=0;exitY=0.5;exitDx=0;exitDy=0;entryX=1;entryY=0.5;entryDx=0;entryDy=0;strokeColor=default;align=center;verticalAlign=middle;fontFamily=Helvetica;fontSize=11;fontColor=default;labelBackgroundColor=default;endArrow=classic;" edge="1" parent="dpNASvieYrBIcGNV2ZXr-182" source="dpNASvieYrBIcGNV2ZXr-128" target="dpNASvieYrBIcGNV2ZXr-133">
          <mxGeometry relative="1" as="geometry">
            <mxPoint x="1020" y="1457.5" as="targetPoint" />
          </mxGeometry>
        </mxCell>
        <mxCell id="dpNASvieYrBIcGNV2ZXr-132" value="Pode funcionar por" style="edgeStyle=orthogonalEdgeStyle;curved=1;rounded=0;orthogonalLoop=1;jettySize=auto;html=1;exitX=0;exitY=0.5;exitDx=0;exitDy=0;entryX=1;entryY=0.5;entryDx=0;entryDy=0;strokeColor=default;align=center;verticalAlign=middle;fontFamily=Helvetica;fontSize=11;fontColor=default;labelBackgroundColor=default;endArrow=classic;" edge="1" parent="dpNASvieYrBIcGNV2ZXr-182" source="dpNASvieYrBIcGNV2ZXr-128" target="dpNASvieYrBIcGNV2ZXr-134">
          <mxGeometry x="-0.4386" y="-10" relative="1" as="geometry">
            <mxPoint x="1020" y="1572.5" as="targetPoint" />
            <mxPoint as="offset" />
          </mxGeometry>
        </mxCell>
        <mxCell id="dpNASvieYrBIcGNV2ZXr-128" value="&lt;span style=&quot;font-size: 16px;&quot;&gt;&lt;b&gt;Medidor de Vazão Ultrassônico&lt;/b&gt;&lt;/span&gt;" style="rounded=1;whiteSpace=wrap;html=1;" vertex="1" parent="dpNASvieYrBIcGNV2ZXr-182">
          <mxGeometry x="1100" y="1480" width="135" height="60" as="geometry" />
        </mxCell>
        <mxCell id="dpNASvieYrBIcGNV2ZXr-136" style="edgeStyle=orthogonalEdgeStyle;curved=1;rounded=0;orthogonalLoop=1;jettySize=auto;html=1;exitX=0;exitY=0.5;exitDx=0;exitDy=0;entryX=1;entryY=0.5;entryDx=0;entryDy=0;strokeColor=default;align=center;verticalAlign=middle;fontFamily=Helvetica;fontSize=11;fontColor=default;labelBackgroundColor=default;endArrow=classic;" edge="1" parent="dpNASvieYrBIcGNV2ZXr-182" source="dpNASvieYrBIcGNV2ZXr-133" target="dpNASvieYrBIcGNV2ZXr-135">
          <mxGeometry relative="1" as="geometry" />
        </mxCell>
        <mxCell id="dpNASvieYrBIcGNV2ZXr-133" value="&lt;span style=&quot;font-size: 16px;&quot;&gt;&lt;b&gt;Efeito Doppler&lt;/b&gt;&lt;/span&gt;" style="rounded=1;whiteSpace=wrap;html=1;" vertex="1" parent="dpNASvieYrBIcGNV2ZXr-182">
          <mxGeometry x="870" y="1420" width="135" height="60" as="geometry" />
        </mxCell>
        <mxCell id="dpNASvieYrBIcGNV2ZXr-138" style="edgeStyle=orthogonalEdgeStyle;curved=1;rounded=0;orthogonalLoop=1;jettySize=auto;html=1;exitX=0;exitY=0.5;exitDx=0;exitDy=0;strokeColor=default;align=center;verticalAlign=middle;fontFamily=Helvetica;fontSize=11;fontColor=default;labelBackgroundColor=default;endArrow=classic;" edge="1" parent="dpNASvieYrBIcGNV2ZXr-182" source="dpNASvieYrBIcGNV2ZXr-134" target="dpNASvieYrBIcGNV2ZXr-137">
          <mxGeometry relative="1" as="geometry" />
        </mxCell>
        <mxCell id="dpNASvieYrBIcGNV2ZXr-134" value="&lt;span style=&quot;font-size: 16px;&quot;&gt;&lt;b&gt;Tempo de trânsito&lt;/b&gt;&lt;/span&gt;" style="rounded=1;whiteSpace=wrap;html=1;" vertex="1" parent="dpNASvieYrBIcGNV2ZXr-182">
          <mxGeometry x="870" y="1540" width="135" height="60" as="geometry" />
        </mxCell>
        <mxCell id="dpNASvieYrBIcGNV2ZXr-135" value="Mede o tempo gasto pela energia&lt;br/&gt;ultrassônica para atravessar a seção do&lt;br/&gt;tubo, indo a favor e contra a vazão do&lt;br/&gt;fluido dentro da tubulação. A diferença no&lt;br/&gt;tempo de trânsito das ondas é&lt;br/&gt;proporcional a vazão do fluido." style="rounded=1;whiteSpace=wrap;html=1;" vertex="1" parent="dpNASvieYrBIcGNV2ZXr-182">
          <mxGeometry x="560" y="1402.5" width="240" height="95" as="geometry" />
        </mxCell>
        <mxCell id="dpNASvieYrBIcGNV2ZXr-137" value="Mede a aparente variação de frequência&lt;br/&gt;produzida pelo movimento relativo de um&lt;br/&gt;emissor e de um receptor de frequência&amp;nbsp;" style="rounded=1;whiteSpace=wrap;html=1;" vertex="1" parent="dpNASvieYrBIcGNV2ZXr-182">
          <mxGeometry x="550" y="1545" width="250" height="50" as="geometry" />
        </mxCell>
        <mxCell id="dpNASvieYrBIcGNV2ZXr-141" style="edgeStyle=orthogonalEdgeStyle;curved=1;rounded=0;orthogonalLoop=1;jettySize=auto;html=1;exitX=0;exitY=0.5;exitDx=0;exitDy=0;entryX=1;entryY=0.5;entryDx=0;entryDy=0;strokeColor=default;align=center;verticalAlign=middle;fontFamily=Helvetica;fontSize=11;fontColor=default;labelBackgroundColor=default;endArrow=classic;" edge="1" parent="dpNASvieYrBIcGNV2ZXr-182" source="dpNASvieYrBIcGNV2ZXr-139" target="dpNASvieYrBIcGNV2ZXr-140">
          <mxGeometry relative="1" as="geometry" />
        </mxCell>
        <mxCell id="dpNASvieYrBIcGNV2ZXr-145" style="edgeStyle=orthogonalEdgeStyle;curved=1;rounded=0;orthogonalLoop=1;jettySize=auto;html=1;exitX=0;exitY=0.5;exitDx=0;exitDy=0;entryX=1;entryY=0.5;entryDx=0;entryDy=0;strokeColor=default;align=center;verticalAlign=middle;fontFamily=Helvetica;fontSize=11;fontColor=default;labelBackgroundColor=default;endArrow=classic;" edge="1" parent="dpNASvieYrBIcGNV2ZXr-182" source="dpNASvieYrBIcGNV2ZXr-139" target="dpNASvieYrBIcGNV2ZXr-144">
          <mxGeometry relative="1" as="geometry" />
        </mxCell>
        <mxCell id="dpNASvieYrBIcGNV2ZXr-139" value="&lt;span style=&quot;font-size: 16px;&quot;&gt;&lt;b&gt;Mecânico&lt;/b&gt;&lt;/span&gt;" style="rounded=1;whiteSpace=wrap;html=1;" vertex="1" parent="dpNASvieYrBIcGNV2ZXr-182">
          <mxGeometry x="1100" y="1730" width="135" height="60" as="geometry" />
        </mxCell>
        <mxCell id="dpNASvieYrBIcGNV2ZXr-143" value="Consiste em" style="edgeStyle=orthogonalEdgeStyle;curved=1;rounded=0;orthogonalLoop=1;jettySize=auto;html=1;exitX=0;exitY=0.5;exitDx=0;exitDy=0;entryX=1;entryY=0.5;entryDx=0;entryDy=0;strokeColor=default;align=center;verticalAlign=middle;fontFamily=Helvetica;fontSize=11;fontColor=default;labelBackgroundColor=default;endArrow=classic;" edge="1" parent="dpNASvieYrBIcGNV2ZXr-182" source="dpNASvieYrBIcGNV2ZXr-140" target="dpNASvieYrBIcGNV2ZXr-142">
          <mxGeometry relative="1" as="geometry" />
        </mxCell>
        <mxCell id="dpNASvieYrBIcGNV2ZXr-140" value="&lt;span style=&quot;font-size: 16px;&quot;&gt;&lt;b&gt;Turbina&lt;/b&gt;&lt;/span&gt;" style="rounded=1;whiteSpace=wrap;html=1;" vertex="1" parent="dpNASvieYrBIcGNV2ZXr-182">
          <mxGeometry x="873" y="1670" width="135" height="60" as="geometry" />
        </mxCell>
        <mxCell id="dpNASvieYrBIcGNV2ZXr-142" value="Consiste em um rotor balanceado com&lt;br/&gt;diâmetro um pouco menor que&lt;br/&gt;o diâmetro interno da tubulação." style="rounded=1;whiteSpace=wrap;html=1;" vertex="1" parent="dpNASvieYrBIcGNV2ZXr-182">
          <mxGeometry x="560" y="1675" width="220" height="50" as="geometry" />
        </mxCell>
        <mxCell id="dpNASvieYrBIcGNV2ZXr-146" value="Características" style="edgeStyle=orthogonalEdgeStyle;curved=1;rounded=0;orthogonalLoop=1;jettySize=auto;html=1;exitX=0;exitY=0.5;exitDx=0;exitDy=0;strokeColor=default;align=center;verticalAlign=middle;fontFamily=Helvetica;fontSize=11;fontColor=default;labelBackgroundColor=default;endArrow=classic;entryX=1;entryY=0.5;entryDx=0;entryDy=0;" edge="1" parent="dpNASvieYrBIcGNV2ZXr-182" source="dpNASvieYrBIcGNV2ZXr-144" target="dpNASvieYrBIcGNV2ZXr-150">
          <mxGeometry relative="1" as="geometry">
            <mxPoint x="815" y="1770" as="targetPoint" />
          </mxGeometry>
        </mxCell>
        <mxCell id="dpNASvieYrBIcGNV2ZXr-149" style="edgeStyle=orthogonalEdgeStyle;curved=1;rounded=0;orthogonalLoop=1;jettySize=auto;html=1;exitX=0;exitY=0.5;exitDx=0;exitDy=0;entryX=1;entryY=0.5;entryDx=0;entryDy=0;strokeColor=default;align=center;verticalAlign=middle;fontFamily=Helvetica;fontSize=11;fontColor=default;labelBackgroundColor=default;endArrow=classic;" edge="1" parent="dpNASvieYrBIcGNV2ZXr-182" source="dpNASvieYrBIcGNV2ZXr-144" target="dpNASvieYrBIcGNV2ZXr-148">
          <mxGeometry relative="1" as="geometry" />
        </mxCell>
        <mxCell id="dpNASvieYrBIcGNV2ZXr-152" style="edgeStyle=orthogonalEdgeStyle;curved=1;rounded=0;orthogonalLoop=1;jettySize=auto;html=1;exitX=0;exitY=0.5;exitDx=0;exitDy=0;entryX=1;entryY=0.5;entryDx=0;entryDy=0;strokeColor=default;align=center;verticalAlign=middle;fontFamily=Helvetica;fontSize=11;fontColor=default;labelBackgroundColor=default;endArrow=classic;" edge="1" parent="dpNASvieYrBIcGNV2ZXr-182" source="dpNASvieYrBIcGNV2ZXr-144" target="dpNASvieYrBIcGNV2ZXr-151">
          <mxGeometry relative="1" as="geometry" />
        </mxCell>
        <mxCell id="dpNASvieYrBIcGNV2ZXr-144" value="&lt;span style=&quot;font-size: 16px;&quot;&gt;&lt;b&gt;Deslocamento positivo&lt;/b&gt;&lt;/span&gt;" style="rounded=1;whiteSpace=wrap;html=1;" vertex="1" parent="dpNASvieYrBIcGNV2ZXr-182">
          <mxGeometry x="873" y="1810" width="135" height="60" as="geometry" />
        </mxCell>
        <mxCell id="dpNASvieYrBIcGNV2ZXr-148" value="&lt;span style=&quot;font-size: 16px;&quot;&gt;&lt;b&gt;Engrenagens Ovais&lt;/b&gt;&lt;/span&gt;" style="rounded=1;whiteSpace=wrap;html=1;" vertex="1" parent="dpNASvieYrBIcGNV2ZXr-182">
          <mxGeometry x="640" y="1860" width="135" height="60" as="geometry" />
        </mxCell>
        <mxCell id="dpNASvieYrBIcGNV2ZXr-150" value="São medidores que possuem uma relação bem definida entre o volume do fluido que passa pelo medidor e o acionamento de um dispositivo de medição. Para cada unidade de volume que atravessa o medidor o dispositivo de medição é acionado um certo número de vezes. Esse tipo de medidor apresenta um fator que permite determinar a vazão em volume.&amp;nbsp;" style="rounded=1;whiteSpace=wrap;html=1;" vertex="1" parent="dpNASvieYrBIcGNV2ZXr-182">
          <mxGeometry x="350" y="1760" width="430" height="70" as="geometry" />
        </mxCell>
        <mxCell id="dpNASvieYrBIcGNV2ZXr-155" value="Funciona por" style="edgeStyle=orthogonalEdgeStyle;curved=1;rounded=0;orthogonalLoop=1;jettySize=auto;html=1;strokeColor=default;align=center;verticalAlign=middle;fontFamily=Helvetica;fontSize=11;fontColor=default;labelBackgroundColor=default;endArrow=classic;" edge="1" parent="dpNASvieYrBIcGNV2ZXr-182" source="dpNASvieYrBIcGNV2ZXr-151" target="dpNASvieYrBIcGNV2ZXr-154">
          <mxGeometry relative="1" as="geometry" />
        </mxCell>
        <mxCell id="dpNASvieYrBIcGNV2ZXr-151" value="&lt;span style=&quot;font-size: 16px;&quot;&gt;&lt;b&gt;Disco de Nutação&lt;/b&gt;&lt;/span&gt;" style="rounded=1;whiteSpace=wrap;html=1;" vertex="1" parent="dpNASvieYrBIcGNV2ZXr-182">
          <mxGeometry x="640" y="1940" width="135" height="60" as="geometry" />
        </mxCell>
        <mxCell id="dpNASvieYrBIcGNV2ZXr-154" value="disco móvel preso a uma esfera central. Uma haste presa por uma biela é fixa à esfera." style="rounded=1;whiteSpace=wrap;html=1;" vertex="1" parent="dpNASvieYrBIcGNV2ZXr-182">
          <mxGeometry x="370" y="1940" width="180" height="60" as="geometry" />
        </mxCell>
        <mxCell id="dpNASvieYrBIcGNV2ZXr-159" style="edgeStyle=orthogonalEdgeStyle;curved=1;rounded=0;orthogonalLoop=1;jettySize=auto;html=1;exitX=0;exitY=0.5;exitDx=0;exitDy=0;entryX=1;entryY=0.5;entryDx=0;entryDy=0;strokeColor=default;align=center;verticalAlign=middle;fontFamily=Helvetica;fontSize=11;fontColor=default;labelBackgroundColor=default;endArrow=classic;" edge="1" parent="dpNASvieYrBIcGNV2ZXr-182" source="dpNASvieYrBIcGNV2ZXr-156" target="dpNASvieYrBIcGNV2ZXr-158">
          <mxGeometry relative="1" as="geometry" />
        </mxCell>
        <mxCell id="dpNASvieYrBIcGNV2ZXr-161" style="edgeStyle=orthogonalEdgeStyle;curved=1;rounded=0;orthogonalLoop=1;jettySize=auto;html=1;exitX=0;exitY=0.5;exitDx=0;exitDy=0;entryX=1;entryY=0.5;entryDx=0;entryDy=0;strokeColor=default;align=center;verticalAlign=middle;fontFamily=Helvetica;fontSize=11;fontColor=default;labelBackgroundColor=default;endArrow=classic;" edge="1" parent="dpNASvieYrBIcGNV2ZXr-182" source="dpNASvieYrBIcGNV2ZXr-156" target="dpNASvieYrBIcGNV2ZXr-160">
          <mxGeometry relative="1" as="geometry" />
        </mxCell>
        <mxCell id="dpNASvieYrBIcGNV2ZXr-168" style="edgeStyle=orthogonalEdgeStyle;curved=1;rounded=0;orthogonalLoop=1;jettySize=auto;html=1;exitX=0;exitY=0.5;exitDx=0;exitDy=0;entryX=1;entryY=0.5;entryDx=0;entryDy=0;strokeColor=default;align=center;verticalAlign=middle;fontFamily=Helvetica;fontSize=11;fontColor=default;labelBackgroundColor=default;endArrow=classic;" edge="1" parent="dpNASvieYrBIcGNV2ZXr-182" source="dpNASvieYrBIcGNV2ZXr-156" target="dpNASvieYrBIcGNV2ZXr-165">
          <mxGeometry relative="1" as="geometry" />
        </mxCell>
        <mxCell id="dpNASvieYrBIcGNV2ZXr-156" value="&lt;span style=&quot;font-size: 16px;&quot;&gt;&lt;b&gt;Medidores de Vazão Mássica&lt;/b&gt;&lt;/span&gt;" style="rounded=1;whiteSpace=wrap;html=1;" vertex="1" parent="dpNASvieYrBIcGNV2ZXr-182">
          <mxGeometry x="1100" y="2100" width="135" height="60" as="geometry" />
        </mxCell>
        <mxCell id="dpNASvieYrBIcGNV2ZXr-158" value="Determinam diretamente a massa do fluxo. Não dependem da massa específica,&amp;nbsp;&lt;span style=&quot;background-color: initial;&quot;&gt;da pressão e da viscosidade do fluido.&amp;nbsp;&lt;/span&gt;" style="rounded=1;whiteSpace=wrap;html=1;" vertex="1" parent="dpNASvieYrBIcGNV2ZXr-182">
          <mxGeometry x="780" y="2010" width="245" height="60" as="geometry" />
        </mxCell>
        <mxCell id="dpNASvieYrBIcGNV2ZXr-164" value="Funciona por" style="edgeStyle=orthogonalEdgeStyle;curved=1;rounded=0;orthogonalLoop=1;jettySize=auto;html=1;exitX=0;exitY=0.5;exitDx=0;exitDy=0;entryX=1;entryY=0.5;entryDx=0;entryDy=0;strokeColor=default;align=center;verticalAlign=middle;fontFamily=Helvetica;fontSize=11;fontColor=default;labelBackgroundColor=default;endArrow=classic;" edge="1" parent="dpNASvieYrBIcGNV2ZXr-182" source="dpNASvieYrBIcGNV2ZXr-160" target="dpNASvieYrBIcGNV2ZXr-162">
          <mxGeometry relative="1" as="geometry" />
        </mxCell>
        <mxCell id="dpNASvieYrBIcGNV2ZXr-160" value="&lt;span style=&quot;font-size: 16px;&quot;&gt;&lt;b&gt;Medidores Térmicos de Fluxo de Massa&lt;/b&gt;&lt;/span&gt;" style="rounded=1;whiteSpace=wrap;html=1;" vertex="1" parent="dpNASvieYrBIcGNV2ZXr-182">
          <mxGeometry x="850" y="2110" width="135" height="60" as="geometry" />
        </mxCell>
        <mxCell id="dpNASvieYrBIcGNV2ZXr-162" value="Uma quantidade conhecida de energia é fornecida ao fluido através de uma resistência elétrica e a temperatura do fluido é medida a montante e a jusante (antes e depois da resistência elétrica). A vazão mássica será Q = m*c*deltaT" style="rounded=1;whiteSpace=wrap;html=1;" vertex="1" parent="dpNASvieYrBIcGNV2ZXr-182">
          <mxGeometry x="490" y="2100" width="285" height="80" as="geometry" />
        </mxCell>
        <mxCell id="dpNASvieYrBIcGNV2ZXr-167" style="edgeStyle=orthogonalEdgeStyle;curved=1;rounded=0;orthogonalLoop=1;jettySize=auto;html=1;exitX=0;exitY=0.5;exitDx=0;exitDy=0;entryX=1;entryY=0.5;entryDx=0;entryDy=0;strokeColor=default;align=center;verticalAlign=middle;fontFamily=Helvetica;fontSize=11;fontColor=default;labelBackgroundColor=default;endArrow=classic;" edge="1" parent="dpNASvieYrBIcGNV2ZXr-182" source="dpNASvieYrBIcGNV2ZXr-165" target="dpNASvieYrBIcGNV2ZXr-166">
          <mxGeometry relative="1" as="geometry" />
        </mxCell>
        <mxCell id="dpNASvieYrBIcGNV2ZXr-165" value="&lt;span style=&quot;font-size: 16px;&quot;&gt;&lt;b&gt;Medidores por efeito Coriolis&lt;/b&gt;&lt;/span&gt;" style="rounded=1;whiteSpace=wrap;html=1;" vertex="1" parent="dpNASvieYrBIcGNV2ZXr-182">
          <mxGeometry x="850" y="2240" width="135" height="60" as="geometry" />
        </mxCell>
        <mxCell id="dpNASvieYrBIcGNV2ZXr-166" value="gerar artificialmente a aceleração de Coriolis e medir a massa pela detecção do momento angular.&amp;nbsp;" style="rounded=1;whiteSpace=wrap;html=1;" vertex="1" parent="dpNASvieYrBIcGNV2ZXr-182">
          <mxGeometry x="527.5" y="2255" width="285" height="30" as="geometry" />
        </mxCell>
        <mxCell id="dpNASvieYrBIcGNV2ZXr-172" style="edgeStyle=orthogonalEdgeStyle;curved=1;rounded=0;orthogonalLoop=1;jettySize=auto;html=1;exitX=0;exitY=0.5;exitDx=0;exitDy=0;entryX=1;entryY=0.5;entryDx=0;entryDy=0;strokeColor=default;align=center;verticalAlign=middle;fontFamily=Helvetica;fontSize=11;fontColor=default;labelBackgroundColor=default;endArrow=classic;" edge="1" parent="dpNASvieYrBIcGNV2ZXr-182" source="dpNASvieYrBIcGNV2ZXr-169" target="dpNASvieYrBIcGNV2ZXr-170">
          <mxGeometry relative="1" as="geometry" />
        </mxCell>
        <mxCell id="dpNASvieYrBIcGNV2ZXr-175" style="edgeStyle=orthogonalEdgeStyle;curved=1;rounded=0;orthogonalLoop=1;jettySize=auto;html=1;exitX=0;exitY=0.5;exitDx=0;exitDy=0;entryX=1;entryY=0.5;entryDx=0;entryDy=0;strokeColor=default;align=center;verticalAlign=middle;fontFamily=Helvetica;fontSize=11;fontColor=default;labelBackgroundColor=default;endArrow=classic;" edge="1" parent="dpNASvieYrBIcGNV2ZXr-182" source="dpNASvieYrBIcGNV2ZXr-169" target="dpNASvieYrBIcGNV2ZXr-171">
          <mxGeometry relative="1" as="geometry" />
        </mxCell>
        <mxCell id="dpNASvieYrBIcGNV2ZXr-169" value="&lt;span style=&quot;font-size: 16px;&quot;&gt;&lt;b&gt;Medidores de Vazão em Canais Abertos&lt;/b&gt;&lt;/span&gt;" style="rounded=1;whiteSpace=wrap;html=1;" vertex="1" parent="dpNASvieYrBIcGNV2ZXr-182">
          <mxGeometry x="1100" y="2400" width="135" height="60" as="geometry" />
        </mxCell>
        <mxCell id="dpNASvieYrBIcGNV2ZXr-174" style="edgeStyle=orthogonalEdgeStyle;curved=1;rounded=0;orthogonalLoop=1;jettySize=auto;html=1;exitX=0;exitY=0.5;exitDx=0;exitDy=0;entryX=1;entryY=0.5;entryDx=0;entryDy=0;strokeColor=default;align=center;verticalAlign=middle;fontFamily=Helvetica;fontSize=11;fontColor=default;labelBackgroundColor=default;endArrow=classic;" edge="1" parent="dpNASvieYrBIcGNV2ZXr-182" source="dpNASvieYrBIcGNV2ZXr-170" target="dpNASvieYrBIcGNV2ZXr-173">
          <mxGeometry relative="1" as="geometry" />
        </mxCell>
        <mxCell id="dpNASvieYrBIcGNV2ZXr-170" value="&lt;span style=&quot;font-size: 16px;&quot;&gt;&lt;b&gt;Vertedore&lt;/b&gt;&lt;/span&gt;" style="rounded=1;whiteSpace=wrap;html=1;" vertex="1" parent="dpNASvieYrBIcGNV2ZXr-182">
          <mxGeometry x="925" y="2350" width="135" height="60" as="geometry" />
        </mxCell>
        <mxCell id="dpNASvieYrBIcGNV2ZXr-177" style="edgeStyle=orthogonalEdgeStyle;curved=1;rounded=0;orthogonalLoop=1;jettySize=auto;html=1;exitX=0;exitY=0.5;exitDx=0;exitDy=0;entryX=1;entryY=0.5;entryDx=0;entryDy=0;strokeColor=default;align=center;verticalAlign=middle;fontFamily=Helvetica;fontSize=11;fontColor=default;labelBackgroundColor=default;endArrow=classic;" edge="1" parent="dpNASvieYrBIcGNV2ZXr-182" source="dpNASvieYrBIcGNV2ZXr-171" target="dpNASvieYrBIcGNV2ZXr-176">
          <mxGeometry relative="1" as="geometry" />
        </mxCell>
        <mxCell id="dpNASvieYrBIcGNV2ZXr-171" value="&lt;span style=&quot;font-size: 16px;&quot;&gt;&lt;b&gt;Calha de Parshall&lt;/b&gt;&lt;/span&gt;" style="rounded=1;whiteSpace=wrap;html=1;" vertex="1" parent="dpNASvieYrBIcGNV2ZXr-182">
          <mxGeometry x="925" y="2480" width="135" height="60" as="geometry" />
        </mxCell>
        <mxCell id="dpNASvieYrBIcGNV2ZXr-173" value="Medem a altura estática do fluxo em reservatório, que verte o fluído de uma abertura com forma variável." style="rounded=1;whiteSpace=wrap;html=1;" vertex="1" parent="dpNASvieYrBIcGNV2ZXr-182">
          <mxGeometry x="550" y="2365" width="325" height="30" as="geometry" />
        </mxCell>
        <mxCell id="dpNASvieYrBIcGNV2ZXr-176" value="É um tipo de Venturi aberto que mede a altura estática do fluxo" style="rounded=1;whiteSpace=wrap;html=1;" vertex="1" parent="dpNASvieYrBIcGNV2ZXr-182">
          <mxGeometry x="535" y="2510" width="340" height="30" as="geometry" />
        </mxCell>
        <mxCell id="dpNASvieYrBIcGNV2ZXr-180" value="" style="rounded=1;whiteSpace=wrap;html=1;dashed=1;dashPattern=8 8;fillColor=none;strokeWidth=2;strokeColor=#4D4D4D;" vertex="1" parent="dpNASvieYrBIcGNV2ZXr-182">
          <mxGeometry x="120" y="90" width="1150" height="860" as="geometry" />
        </mxCell>
      </root>
    </mxGraphModel>
  </diagram>
</mxfile>
